<?xml version="1.0" encoding="UTF-8" standalone="no" ?>
<!DOCTYPE svg PUBLIC "-//W3C//DTD SVG 1.1//EN" "http://www.w3.org/Graphics/SVG/1.1/DTD/svg11.dtd">
<svg xmlns="http://www.w3.org/2000/svg" xmlns:xlink="http://www.w3.org/1999/xlink" version="1.1" width="1080" height="1080" viewBox="0 0 1080 1080" xml:space="preserve">
<desc>Created with Fabric.js 5.2.4</desc>
<defs>
</defs>
<rect x="0" y="0" width="100%" height="100%" fill="transparent"></rect>
<g transform="matrix(1 0 0 1 540 540)" id="d6568390-5992-4040-a8fd-c7dab435cb9c"  >
<rect style="stroke: none; stroke-width: 1; stroke-dasharray: none; stroke-linecap: butt; stroke-dashoffset: 0; stroke-linejoin: miter; stroke-miterlimit: 4; fill: rgb(255,255,255); fill-rule: nonzero; opacity: 1; visibility: hidden;" vector-effect="non-scaling-stroke"  x="-540" y="-540" rx="0" ry="0" width="1080" height="1080" />
</g>
<g transform="matrix(1 0 0 1 540 540)" id="52fd3cdb-bb99-49c7-9160-09b210dbfea6"  >
</g>
<g transform="matrix(28.42 0 0 28.42 540 540)"  >
<g style=""   >
		<g transform="matrix(1 0 0 1 0 0)"  >
<path style="stroke: none; stroke-width: 1; stroke-dasharray: none; stroke-linecap: butt; stroke-dashoffset: 0; stroke-linejoin: miter; stroke-miterlimit: 4; fill: rgb(0,0,0); fill-rule: nonzero; opacity: 0.07;" vector-effect="non-scaling-stroke"  transform=" translate(-19, -12)" d="M 35 0 L 3 0 C 1.3 0 0 1.3 0 3 L 0 21 C 0 22.7 1.4 24 3 24 L 35 24 C 36.7 24 38 22.7 38 21 L 38 3 C 38 1.3 36.6 0 35 0 z" stroke-linecap="round" />
</g>
		<g transform="matrix(1 0 0 1 0 0)"  >
<path style="stroke: none; stroke-width: 1; stroke-dasharray: none; stroke-linecap: butt; stroke-dashoffset: 0; stroke-linejoin: miter; stroke-miterlimit: 4; fill: rgb(255,255,255); fill-rule: nonzero; opacity: 1;" vector-effect="non-scaling-stroke"  transform=" translate(-19, -12)" d="M 35 1 C 36.1 1 37 1.9 37 3 L 37 21 C 37 22.1 36.1 23 35 23 L 3 23 C 1.9 23 1 22.1 1 21 L 1 3 C 1 1.9 1.9 1 3 1 L 35 1" stroke-linecap="round" />
</g>
		<g transform="matrix(1 0 0 1 -0.51 0)"  >
<path style="stroke: none; stroke-width: 1; stroke-dasharray: none; stroke-linecap: butt; stroke-dashoffset: 0; stroke-linejoin: miter; stroke-miterlimit: 4; fill: rgb(48,134,200); fill-rule: nonzero; opacity: 1;" vector-effect="non-scaling-stroke"  transform=" translate(-18.49, -12)" d="M 12 12 L 12 15.7 C 12 16 11.8 16 11.5 15.899999999999999 C 9.6 15.099999999999998 8.5 12.599999999999998 9.2 10.499999999999998 C 9.6 9.399999999999999 10.399999999999999 8.499999999999998 11.5 8.099999999999998 C 11.9 7.899999999999998 12 7.999999999999998 12 8.299999999999997 L 12 12 z M 14 12 L 14 8.3 C 14 8 14 8 14.3 8.100000000000001 C 16.400000000000002 8.900000000000002 17.5 11.400000000000002 16.7 13.500000000000002 C 16.3 14.600000000000001 15.5 15.500000000000002 14.399999999999999 15.900000000000002 C 13.999999999999998 16.1 13.999999999999998 16.000000000000004 13.999999999999998 15.700000000000003 L 13.999999999999998 12 z M 21.2 5 L 13 5 C 16.8 5 19.8 8.1 19.8 12 C 19.8 15.9 16.8 19 13 19 L 21.2 19 C 25 19 28 15.9 28 12 C 28 8.1 25 5 21.2 5 z" stroke-linecap="round" />
</g>
</g>
</g>
</svg>