<?xml version="1.0" encoding="UTF-8" standalone="no" ?>
<!DOCTYPE svg PUBLIC "-//W3C//DTD SVG 1.1//EN" "http://www.w3.org/Graphics/SVG/1.1/DTD/svg11.dtd">
<svg xmlns="http://www.w3.org/2000/svg" xmlns:xlink="http://www.w3.org/1999/xlink" version="1.1" width="1080" height="1080" viewBox="0 0 1080 1080" xml:space="preserve">
<desc>Created with Fabric.js 5.2.4</desc>
<defs>
</defs>
<g transform="matrix(1 0 0 1 540 540)" id="d6568390-5992-4040-a8fd-c7dab435cb9c"  >
<rect style="stroke: none; stroke-width: 1; stroke-dasharray: none; stroke-linecap: butt; stroke-dashoffset: 0; stroke-linejoin: miter; stroke-miterlimit: 4; fill: rgb(255,255,255); fill-rule: nonzero; opacity: 1; visibility: hidden;" vector-effect="non-scaling-stroke"  x="-540" y="-540" rx="0" ry="0" width="1080" height="1080" />
</g>
<g transform="matrix(1 0 0 1 540 540)" id="52fd3cdb-bb99-49c7-9160-09b210dbfea6"  >
</g>
<g transform="matrix(28.42 0 0 28.42 540 540)"  >
<g style=""   >
		<g transform="matrix(1 0 0 1 0 0)"  >
<path style="stroke: none; stroke-width: 1; stroke-dasharray: none; stroke-linecap: butt; stroke-dashoffset: 0; stroke-linejoin: miter; stroke-miterlimit: 4; fill: rgb(0,0,0); fill-rule: nonzero; opacity: 0.07;" vector-effect="non-scaling-stroke"  transform=" translate(-19, -12)" d="M 35 0 L 3 0 C 1.3 0 0 1.3 0 3 L 0 21 C 0 22.7 1.4 24 3 24 L 35 24 C 36.7 24 38 22.7 38 21 L 38 3 C 38 1.3 36.6 0 35 0 z" stroke-linecap="round" />
</g>
		<g transform="matrix(1 0 0 1 0 0)"  >
<path style="stroke: none; stroke-width: 1; stroke-dasharray: none; stroke-linecap: butt; stroke-dashoffset: 0; stroke-linejoin: miter; stroke-miterlimit: 4; fill: rgb(255,255,255); fill-rule: nonzero; opacity: 1;" vector-effect="non-scaling-stroke"  transform=" translate(-19, -12)" d="M 35 1 C 36.1 1 37 1.9 37 3 L 37 21 C 37 22.1 36.1 23 35 23 L 3 23 C 1.9 23 1 22.1 1 21 L 1 3 C 1 1.9 1.9 1 3 1 L 35 1" stroke-linecap="round" />
</g>
		<g transform="matrix(1 0 0 1 -0.9 0)"  >
<path style="stroke: none; stroke-width: 1; stroke-dasharray: none; stroke-linecap: butt; stroke-dashoffset: 0; stroke-linejoin: miter; stroke-miterlimit: 4; fill: rgb(20,38,136); fill-rule: nonzero; opacity: 1;" vector-effect="non-scaling-stroke"  transform=" translate(-18.1, -12)" d="M 28.3 10.1 L 28 10.1 C 27.6 11.1 27.3 11.6 27 13.1 L 28.9 13.1 C 28.599999999999998 11.6 28.599999999999998 10.899999999999999 28.299999999999997 10.1 z M 31.2 16 L 29.5 16 C 29.4 16 29.4 16 29.3 15.9 L 29.1 15 L 29 14.8 L 26.6 14.8 C 26.5 14.8 26.400000000000002 14.8 26.400000000000002 15 L 26.1 15.9 C 26.1 16 26 16 26 16 L 23.9 16 L 24.099999999999998 15.5 L 27 8.7 C 27 8.2 27.3 7.999999999999999 27.8 7.999999999999999 L 29.3 7.999999999999999 C 29.400000000000002 7.999999999999999 29.5 7.999999999999999 29.5 8.2 L 30.9 14.7 C 31 15.1 31.099999999999998 15.399999999999999 31.099999999999998 15.799999999999999 C 31.2 15.899999999999999 31.2 15.899999999999999 31.2 15.999999999999998 z M 17.799999999999997 15.7 L 18.199999999999996 13.899999999999999 C 18.299999999999997 13.899999999999999 18.399999999999995 13.999999999999998 18.399999999999995 13.999999999999998 C 19.099999999999994 14.299999999999999 19.799999999999994 14.499999999999998 20.499999999999996 14.399999999999999 C 20.699999999999996 14.399999999999999 20.999999999999996 14.299999999999999 21.199999999999996 14.2 C 21.699999999999996 14 21.699999999999996 13.5 21.299999999999997 13.1 C 21.099999999999998 12.9 20.799999999999997 12.799999999999999 20.499999999999996 12.6 C 20.099999999999998 12.4 19.699999999999996 12.2 19.399999999999995 11.9 C 18.199999999999996 10.9 18.599999999999994 9.5 19.299999999999994 8.8 C 19.899999999999995 8.4 20.199999999999992 8 20.999999999999993 8 C 22.199999999999992 8 23.499999999999993 8 24.099999999999994 8.2 L 24.199999999999996 8.2 C 24.099999999999994 8.799999999999999 23.999999999999996 9.299999999999999 23.799999999999997 9.899999999999999 C 23.299999999999997 9.7 22.799999999999997 9.499999999999998 22.299999999999997 9.499999999999998 C 21.999999999999996 9.499999999999998 21.699999999999996 9.499999999999998 21.4 9.599999999999998 C 21.2 9.599999999999998 21.099999999999998 9.699999999999998 21 9.799999999999997 C 20.8 9.999999999999996 20.8 10.299999999999997 21 10.499999999999996 L 21.5 10.899999999999997 C 21.9 11.099999999999996 22.3 11.299999999999997 22.6 11.499999999999996 C 23.1 11.799999999999997 23.6 12.299999999999997 23.700000000000003 12.899999999999997 C 23.900000000000002 13.799999999999997 23.6 14.599999999999996 22.800000000000004 15.199999999999996 C 22.300000000000004 15.599999999999996 22.100000000000005 15.799999999999995 21.400000000000006 15.799999999999995 C 20.000000000000007 15.799999999999995 18.900000000000006 15.899999999999995 18.000000000000007 15.599999999999996 C 17.900000000000006 15.799999999999995 17.900000000000006 15.799999999999995 17.800000000000008 15.699999999999996 z M 14.299999999999997 16 C 14.399999999999997 15.3 14.399999999999997 15.3 14.499999999999996 15 C 14.999999999999996 12.8 15.499999999999996 10.5 15.899999999999997 8.3 C 15.999999999999996 8.100000000000001 15.999999999999996 8 16.199999999999996 8 L 18 8 C 17.8 9.2 17.6 10.1 17.3 11.2 C 17 12.7 16.7 14.2 16.3 15.7 C 16.3 15.899999999999999 16.2 15.899999999999999 16 15.899999999999999 M 5 8.2 C 5 8.1 5.2 7.999999999999999 5.3 7.999999999999999 L 8.7 7.999999999999999 C 9.2 7.999999999999999 9.6 8.299999999999999 9.7 8.799999999999999 L 10.6 13.2 C 10.6 13.299999999999999 10.6 13.299999999999999 10.7 13.399999999999999 C 10.7 13.299999999999999 10.799999999999999 13.299999999999999 10.799999999999999 13.299999999999999 L 12.899999999999999 8.2 C 12.799999999999999 8.1 12.899999999999999 7.999999999999999 12.999999999999998 7.999999999999999 L 15.099999999999998 7.999999999999999 C 15.099999999999998 8.1 15.099999999999998 8.1 14.999999999999998 8.2 L 11.899999999999999 15.5 C 11.799999999999999 15.7 11.799999999999999 15.8 11.7 15.9 C 11.6 16 11.399999999999999 15.9 11.2 15.9 L 9.7 15.9 C 9.6 15.9 9.5 15.9 9.5 15.700000000000001 L 7.9 9.5 C 7.7 9.3 7.4 9 7 8.9 C 6.4 8.6 5.3 8.4 5.1 8.4 L 5 8.2 z" stroke-linecap="round" />
</g>
</g>
</g>
</svg>