<?xml version="1.0" encoding="UTF-8" standalone="no" ?>
<!DOCTYPE svg PUBLIC "-//W3C//DTD SVG 1.1//EN" "http://www.w3.org/Graphics/SVG/1.1/DTD/svg11.dtd">
<svg xmlns="http://www.w3.org/2000/svg" xmlns:xlink="http://www.w3.org/1999/xlink" version="1.1" width="1080" height="1080" viewBox="0 0 1080 1080" xml:space="preserve">
<desc>Created with Fabric.js 5.2.4</desc>
<defs>
</defs>
<rect x="0" y="0" width="100%" height="100%" fill="transparent"></rect>
<g transform="matrix(1 0 0 1 540 540)" id="d6568390-5992-4040-a8fd-c7dab435cb9c"  >
<rect style="stroke: none; stroke-width: 1; stroke-dasharray: none; stroke-linecap: butt; stroke-dashoffset: 0; stroke-linejoin: miter; stroke-miterlimit: 4; fill: rgb(255,255,255); fill-rule: nonzero; opacity: 1; visibility: hidden;" vector-effect="non-scaling-stroke"  x="-540" y="-540" rx="0" ry="0" width="1080" height="1080" />
</g>
<g transform="matrix(1 0 0 1 540 540)" id="52fd3cdb-bb99-49c7-9160-09b210dbfea6"  >
</g>
<g transform="matrix(28.42 0 0 28.42 540 540)"  >
<g style=""   >
		<g transform="matrix(1 0 0 1 0 0)"  >
<path style="stroke: none; stroke-width: 1; stroke-dasharray: none; stroke-linecap: butt; stroke-dashoffset: 0; stroke-linejoin: miter; stroke-miterlimit: 4; fill: rgb(0,0,0); fill-rule: nonzero; opacity: 0.07;" vector-effect="non-scaling-stroke"  transform=" translate(-19, -12)" d="M 35 0 L 3 0 C 1.3 0 0 1.3 0 3 L 0 21 C 0 22.7 1.4 24 3 24 L 35 24 C 36.7 24 38 22.7 38 21 L 38 3 C 38 1.3 36.6 0 35 0 z" stroke-linecap="round" />
</g>
		<g transform="matrix(1 0 0 1 0 0)"  >
<path style="stroke: none; stroke-width: 1; stroke-dasharray: none; stroke-linecap: butt; stroke-dashoffset: 0; stroke-linejoin: miter; stroke-miterlimit: 4; fill: rgb(255,255,255); fill-rule: nonzero; opacity: 1;" vector-effect="non-scaling-stroke"  transform=" translate(-19, -12)" d="M 35 1 C 36.1 1 37 1.9 37 3 L 37 21 C 37 22.1 36.1 23 35 23 L 3 23 C 1.9 23 1 22.1 1 21 L 1 3 C 1 1.9 1.9 1 3 1 L 35 1 z" stroke-linecap="round" />
</g>
		<g transform="matrix(1 0 0 1 0.14 -2.07)"  >
<path style="stroke: none; stroke-width: 1; stroke-dasharray: none; stroke-linecap: butt; stroke-dashoffset: 0; stroke-linejoin: miter; stroke-miterlimit: 4; fill: rgb(35,31,32); fill-rule: nonzero; opacity: 1;" vector-effect="non-scaling-stroke"  transform=" translate(-19.14, -9.93)" d="M 3.57 7.16 L 2 7.16 L 2 12.66 L 3.5700000000000003 12.66 C 4.4 12.66 5 12.46 5.53 12.03 C 6.16 11.51 6.53 10.729999999999999 6.53 9.92 C 6.5200000000000005 8.29 5.3100000000000005 7.16 3.5700000000000003 7.16 z M 4.83 11.3 C 4.49 11.600000000000001 4.0600000000000005 11.74 3.3600000000000003 11.74 L 3.0700000000000003 11.74 L 3.0700000000000003 8.1 L 3.3600000000000003 8.1 C 4.050000000000001 8.1 4.470000000000001 8.219999999999999 4.83 8.54 C 5.2 8.87 5.42 9.379999999999999 5.42 9.91 C 5.42 10.44 5.2 10.97 4.83 11.3 z M 7.02 7.160000000000001 L 8.09 7.160000000000001 L 8.09 12.66 L 7.02 12.66 L 7.02 7.16 z M 10.709999999999999 9.270000000000001 C 10.069999999999999 9.030000000000001 9.879999999999999 8.870000000000001 9.879999999999999 8.580000000000002 C 9.879999999999999 8.230000000000002 10.219999999999999 7.9700000000000015 10.68 7.9700000000000015 C 11 7.9700000000000015 11.27 8.100000000000001 11.54 8.420000000000002 L 12.1 7.690000000000001 C 11.639999999999999 7.290000000000001 11.09 7.080000000000001 10.48 7.080000000000001 C 9.51 7.080000000000001 8.76 7.760000000000001 8.76 8.66 C 8.76 9.42 9.11 9.81 10.11 10.17 C 10.53 10.32 10.74 10.42 10.85 10.48 C 11.06 10.620000000000001 11.17 10.82 11.17 11.05 C 11.17 11.5 10.82 11.83 10.34 11.83 C 9.83 11.83 9.42 11.57 9.17 11.1 L 8.48 11.77 C 8.97 12.5 9.57 12.82 10.38 12.82 C 11.49 12.82 12.280000000000001 12.08 12.280000000000001 11.01 C 12.3 10.12 11.930000000000001 9.719999999999999 10.71 9.27 z M 12.629999999999999 9.920000000000002 C 12.629999999999999 11.540000000000003 13.899999999999999 12.790000000000003 15.53 12.790000000000003 C 15.99 12.790000000000003 16.39 12.700000000000003 16.87 12.470000000000002 L 16.87 11.210000000000003 C 16.44 11.640000000000002 16.060000000000002 11.810000000000002 15.580000000000002 11.810000000000002 C 14.500000000000002 11.810000000000002 13.730000000000002 11.030000000000003 13.730000000000002 9.910000000000002 C 13.730000000000002 8.850000000000001 14.520000000000003 8.020000000000001 15.530000000000003 8.020000000000001 C 16.040000000000003 8.020000000000001 16.430000000000003 8.200000000000001 16.870000000000005 8.64 L 16.870000000000005 7.38 C 16.400000000000006 7.14 16.010000000000005 7.04 15.550000000000004 7.04 C 13.940000000000005 7.04 12.630000000000004 8.32 12.630000000000004 9.92 z M 25.39 10.860000000000001 L 23.92 7.160000000000001 L 22.75 7.160000000000001 L 25.08 12.8 L 25.659999999999997 12.8 L 28.029999999999998 7.160000000000001 L 26.869999999999997 7.160000000000001 L 25.389999999999997 10.860000000000001 z M 28.52 12.660000000000002 L 31.56 12.660000000000002 L 31.56 11.730000000000002 L 29.59 11.730000000000002 L 29.59 10.250000000000002 L 31.49 10.250000000000002 L 31.49 9.320000000000002 L 29.59 9.320000000000002 L 29.59 8.1 L 31.56 8.1 L 31.56 7.16 L 28.52 7.16 L 28.52 12.66 z M 35.81 8.790000000000003 C 35.81 7.7600000000000025 35.1 7.170000000000003 33.86 7.170000000000003 L 32.269999999999996 7.170000000000003 L 32.269999999999996 12.670000000000002 L 33.339999999999996 12.670000000000002 L 33.339999999999996 10.46 L 33.48 10.46 L 34.959999999999994 12.670000000000002 L 36.279999999999994 12.670000000000002 L 34.55 10.350000000000001 C 35.36 10.180000000000001 35.809999999999995 9.63 35.809999999999995 8.790000000000001 z M 33.650000000000006 9.700000000000003 L 33.34 9.700000000000003 L 33.34 8.03 L 33.67 8.03 C 34.34 8.03 34.7 8.309999999999999 34.7 8.85 C 34.7 9.4 34.34 9.7 33.650000000000006 9.7 z" stroke-linecap="round" />
</g>
		<g transform="matrix(1 0 0 1 1.16 -2.07)"  >
<linearGradient id="SVGID_pi-paint0_linear_8" gradientUnits="userSpaceOnUse" gradientTransform="matrix(1 0 0 1 0 0)"  x1="21.657" y1="12.275" x2="19.632" y2="9.104">
<stop offset="0%" style="stop-color:rgb(248,159,32);stop-opacity: 1"/>
<stop offset="25%" style="stop-color:rgb(247,154,32);stop-opacity: 1"/>
<stop offset="53.300000000000004%" style="stop-color:rgb(246,141,32);stop-opacity: 1"/>
<stop offset="62%" style="stop-color:rgb(245,135,32);stop-opacity: 1"/>
<stop offset="72.3%" style="stop-color:rgb(244,129,32);stop-opacity: 1"/>
<stop offset="100%" style="stop-color:rgb(243,117,33);stop-opacity: 1"/>
</linearGradient>
<path style="stroke: none; stroke-width: 1; stroke-dasharray: none; stroke-linecap: butt; stroke-dashoffset: 0; stroke-linejoin: miter; stroke-miterlimit: 4; fill: url(#SVGID_pi-paint0_linear_8); fill-rule: nonzero; opacity: 1;" vector-effect="non-scaling-stroke"  transform=" translate(-20.16, -9.93)" d="M 20.16 12.86 C 21.778746601754055 12.86 23.091 11.547746601754055 23.091 9.928999999999998 C 23.091 8.310253398245944 21.778746601754055 6.997999999999999 20.16 6.997999999999999 C 18.541253398245946 6.997999999999999 17.229 8.310253398245944 17.229 9.928999999999998 C 17.229 11.547746601754055 18.541253398245946 12.86 20.16 12.86 z" stroke-linecap="round" />
</g>
		<g transform="matrix(1 0 0 1 1.16 -2.07)"  >
<linearGradient id="SVGID_pi-paint1_linear_9" gradientUnits="userSpaceOnUse" gradientTransform="matrix(1 0 0 1 0 0)"  x1="21.338" y1="12.232" x2="18.378" y2="6.446">
<stop offset="0%" style="stop-color:rgb(245,135,32);stop-opacity: 1"/>
<stop offset="35.9%" style="stop-color:rgb(225,111,39);stop-opacity: 1"/>
<stop offset="70.3%" style="stop-color:rgb(212,96,44);stop-opacity: 1"/>
<stop offset="98.2%" style="stop-color:rgb(208,91,46);stop-opacity: 1"/>
</linearGradient>
<path style="stroke: none; stroke-width: 1; stroke-dasharray: none; stroke-linecap: butt; stroke-dashoffset: 0; stroke-linejoin: miter; stroke-miterlimit: 4; fill: url(#SVGID_pi-paint1_linear_9); fill-rule: nonzero; opacity: 0.65;" vector-effect="non-scaling-stroke"  transform=" translate(-20.16, -9.93)" d="M 20.16 12.86 C 21.778746601754055 12.86 23.091 11.547746601754055 23.091 9.928999999999998 C 23.091 8.310253398245944 21.778746601754055 6.997999999999999 20.16 6.997999999999999 C 18.541253398245946 6.997999999999999 17.229 8.310253398245944 17.229 9.928999999999998 C 17.229 11.547746601754055 18.541253398245946 12.86 20.16 12.86 z" stroke-linecap="round" />
</g>
		<g transform="matrix(1 0 0 1 17.43 -4.4)"  >
<path style="stroke: none; stroke-width: 1; stroke-dasharray: none; stroke-linecap: butt; stroke-dashoffset: 0; stroke-linejoin: miter; stroke-miterlimit: 4; fill: rgb(35,31,32); fill-rule: nonzero; opacity: 1;" vector-effect="non-scaling-stroke"  transform=" translate(-36.43, -7.6)" d="M 36.57 7.506 C 36.57 7.406000000000001 36.5 7.356 36.39 7.356 L 36.230000000000004 7.356 L 36.230000000000004 7.836 L 36.35 7.836 L 36.35 7.646 L 36.49 7.836 L 36.63 7.836 L 36.470000000000006 7.636 C 36.53000000000001 7.626 36.57000000000001 7.5760000000000005 36.57000000000001 7.506 z M 36.37 7.5760000000000005 L 36.349999999999994 7.5760000000000005 L 36.349999999999994 7.446000000000001 L 36.37 7.446000000000001 C 36.43 7.446000000000001 36.46 7.466 36.46 7.506 C 36.46 7.556 36.43 7.5760000000000005 36.37 7.5760000000000005 z" stroke-linecap="round" />
</g>
		<g transform="matrix(1 0 0 1 17.41 -4.4)"  >
<path style="stroke: none; stroke-width: 1; stroke-dasharray: none; stroke-linecap: butt; stroke-dashoffset: 0; stroke-linejoin: miter; stroke-miterlimit: 4; fill: rgb(35,31,32); fill-rule: nonzero; opacity: 1;" vector-effect="non-scaling-stroke"  transform=" translate(-36.41, -7.6)" d="M 36.41 7.176 C 36.18 7.176 35.989999999999995 7.3660000000000005 35.989999999999995 7.596 C 35.989999999999995 7.8260000000000005 36.17999999999999 8.016 36.41 8.016 C 36.63999999999999 8.016 36.83 7.826 36.83 7.596 C 36.83 7.366 36.64 7.176 36.41 7.176 z M 36.41 7.946 C 36.23 7.946 36.06999999999999 7.795999999999999 36.06999999999999 7.596 C 36.06999999999999 7.406 36.21999999999999 7.246 36.41 7.246 C 36.589999999999996 7.246 36.739999999999995 7.406000000000001 36.739999999999995 7.596 C 36.739999999999995 7.7860000000000005 36.589999999999996 7.946 36.41 7.946 z" stroke-linecap="round" />
</g>
		<g transform="matrix(1 0 0 1 4 5.99)"  >
<path style="stroke: none; stroke-width: 1; stroke-dasharray: none; stroke-linecap: butt; stroke-dashoffset: 0; stroke-linejoin: miter; stroke-miterlimit: 4; fill: rgb(244,129,32); fill-rule: nonzero; opacity: 1;" vector-effect="non-scaling-stroke"  transform=" translate(-23, -17.99)" d="M 37 12.984 C 37 12.984 27.09 19.873 8.976 23 L 34.999 23 C 36.097351160794666 23.00003514779504 36.99021319127152 22.114316013561996 36.999 21.016 L 37.023 17.996 L 37 12.985 z" stroke-linecap="round" />
</g>
</g>
</g>
</svg>