<?xml version="1.0" encoding="UTF-8" standalone="no" ?>
<!DOCTYPE svg PUBLIC "-//W3C//DTD SVG 1.1//EN" "http://www.w3.org/Graphics/SVG/1.1/DTD/svg11.dtd">
<svg xmlns="http://www.w3.org/2000/svg" xmlns:xlink="http://www.w3.org/1999/xlink" version="1.1" width="1080" height="1080" viewBox="0 0 1080 1080" xml:space="preserve">
<desc>Created with Fabric.js 5.2.4</desc>
<defs>
</defs>
<rect x="0" y="0" width="100%" height="100%" fill="transparent"></rect>
<g transform="matrix(1 0 0 1 540 540)" id="d6568390-5992-4040-a8fd-c7dab435cb9c"  >
<rect style="stroke: none; stroke-width: 1; stroke-dasharray: none; stroke-linecap: butt; stroke-dashoffset: 0; stroke-linejoin: miter; stroke-miterlimit: 4; fill: rgb(255,255,255); fill-rule: nonzero; opacity: 1; visibility: hidden;" vector-effect="non-scaling-stroke"  x="-540" y="-540" rx="0" ry="0" width="1080" height="1080" />
</g>
<g transform="matrix(1 0 0 1 540 540)" id="52fd3cdb-bb99-49c7-9160-09b210dbfea6"  >
</g>
<g transform="matrix(28.42 0 0 28.42 540 540)"  >
<g style=""   >
		<g transform="matrix(1 0 0 1 0 0)"  >
<path style="stroke: none; stroke-width: 1; stroke-dasharray: none; stroke-linecap: butt; stroke-dashoffset: 0; stroke-linejoin: miter; stroke-miterlimit: 4; fill: rgb(0,0,0); fill-rule: nonzero; opacity: 0.07;" vector-effect="non-scaling-stroke"  transform=" translate(-19, -12)" d="M 35 0 L 3 0 C 1.3 0 0 1.3 0 3 L 0 21 C 0 22.7 1.4 24 3 24 L 35 24 C 36.7 24 38 22.7 38 21 L 38 3 C 38 1.3 36.6 0 35 0 z" stroke-linecap="round" />
</g>
		<g transform="matrix(1 0 0 1 0 0)"  >
<path style="stroke: none; stroke-width: 1; stroke-dasharray: none; stroke-linecap: butt; stroke-dashoffset: 0; stroke-linejoin: miter; stroke-miterlimit: 4; fill: rgb(255,255,255); fill-rule: nonzero; opacity: 1;" vector-effect="non-scaling-stroke"  transform=" translate(-19, -12)" d="M 35 1 C 36.1 1 37 1.9 37 3 L 37 21 C 37 22.1 36.1 23 35 23 L 3 23 C 1.9 23 1 22.1 1 21 L 1 3 C 1 1.9 1.9 1 3 1 L 35 1" stroke-linecap="round" />
</g>
		<g transform="matrix(1 0 0 1 -0.01 -1.5)"  >
<path style="stroke: none; stroke-width: 1; stroke-dasharray: none; stroke-linecap: butt; stroke-dashoffset: 0; stroke-linejoin: miter; stroke-miterlimit: 4; fill: rgb(0,48,135); fill-rule: nonzero; opacity: 1;" vector-effect="non-scaling-stroke"  transform=" translate(-18.99, -10.5)" d="M 23.9 8.3 C 24.099999999999998 7.300000000000001 23.9 6.6000000000000005 23.299999999999997 6.000000000000001 C 22.699999999999996 5.300000000000001 21.599999999999998 5.000000000000001 20.199999999999996 5.000000000000001 L 16.099999999999994 5.000000000000001 C 15.799999999999994 5.000000000000001 15.599999999999994 5.200000000000001 15.499999999999995 5.500000000000001 L 14 15.6 C 14 15.799999999999999 14.1 16 14.3 16 L 17 16 L 17.4 12.6 L 19.2 10.399999999999999 L 23.9 8.299999999999999 z" stroke-linecap="round" />
</g>
		<g transform="matrix(1 0 0 1 1.75 1.2)"  >
<path style="stroke: none; stroke-width: 1; stroke-dasharray: none; stroke-linecap: butt; stroke-dashoffset: 0; stroke-linejoin: miter; stroke-miterlimit: 4; fill: rgb(48,134,200); fill-rule: nonzero; opacity: 1;" vector-effect="non-scaling-stroke"  transform=" translate(-20.75, -13.2)" d="M 23.9 8.3 L 23.7 8.5 C 23.2 11.3 21.5 12.3 19.1 12.3 L 18 12.3 C 17.7 12.3 17.5 12.5 17.4 12.8 L 16.799999999999997 16.7 L 16.599999999999998 17.7 C 16.599999999999998 17.9 16.7 18.099999999999998 16.9 18.099999999999998 L 19 18.099999999999998 C 19.3 18.099999999999998 19.5 17.9 19.5 17.7 L 19.5 17.599999999999998 L 19.9 15.199999999999998 L 19.9 15.099999999999998 C 19.9 14.899999999999999 20.2 14.699999999999998 20.4 14.699999999999998 L 20.7 14.699999999999998 C 22.8 14.699999999999998 24.4 13.899999999999997 24.799999999999997 11.499999999999996 C 24.999999999999996 10.499999999999996 24.9 9.699999999999996 24.4 9.099999999999996 C 24.299999999999997 8.599999999999996 24.099999999999998 8.399999999999997 23.9 8.299999999999995 z" stroke-linecap="round" />
</g>
		<g transform="matrix(1 0 0 1 1.65 -1.7)"  >
<path style="stroke: none; stroke-width: 1; stroke-dasharray: none; stroke-linecap: butt; stroke-dashoffset: 0; stroke-linejoin: miter; stroke-miterlimit: 4; fill: rgb(1,33,105); fill-rule: nonzero; opacity: 1;" vector-effect="non-scaling-stroke"  transform=" translate(-20.65, -10.3)" d="M 23.3 8.1 C 23.2 8 23.1 8 23 8 C 22.9 8 22.8 8 22.7 7.9 C 22.4 7.800000000000001 22 7.800000000000001 21.599999999999998 7.800000000000001 L 18.599999999999998 7.800000000000001 C 18.499999999999996 7.800000000000001 18.4 7.800000000000001 18.4 7.9 C 18.2 8 18.099999999999998 8.1 18.099999999999998 8.3 L 17.4 12.700000000000001 L 17.4 12.8 C 17.4 12.5 17.7 12.3 18 12.3 L 19.3 12.3 C 21.8 12.3 23.4 11.3 23.9 8.5 L 23.9 8.3 C 23.799999999999997 8.200000000000001 23.599999999999998 8.100000000000001 23.4 8.100000000000001 L 23.299999999999997 8.100000000000001 z" stroke-linecap="round" />
</g>
</g>
</g>
</svg>